<svg version="1.1" id="Layer_1" xmlns="http://www.w3.org/2000/svg" xmlns:xlink="http://www.w3.org/1999/xlink" x="0px" y="0px"
	 width="100%" viewBox="0 0 741 741" enable-background="new 0 0 741 741" xml:space="preserve">
<path fill="#000000" opacity="1.000000" stroke="none" 
	d="
M358.000000,742.000000 
	C238.666672,742.000000 119.833336,742.000000 1.000000,742.000000 
	C1.000000,495.000000 1.000000,248.000000 1.000000,1.000000 
	C248.000000,1.000000 495.000000,1.000000 742.000000,1.000000 
	C742.000000,248.000000 742.000000,495.000000 742.000000,742.000000 
	C614.166687,742.000000 486.333344,742.000000 358.000000,742.000000 
M384.441742,387.472412 
	C380.110138,387.451080 375.778534,387.422119 371.446899,387.410156 
	C364.309296,387.390442 360.825470,383.953033 360.748688,376.934143 
	C359.986603,307.290985 359.213409,237.647964 358.446564,168.004868 
	C358.427032,166.230896 358.444122,164.456528 358.444122,162.682358 
	C357.965485,162.425690 357.486816,162.169022 357.008179,161.912354 
	C321.245483,198.068741 285.482819,234.225143 248.477249,271.638092 
	C218.955063,241.970551 190.295670,213.170029 161.360687,184.092560 
	C161.288300,185.385071 161.172562,186.487350 161.172501,187.589630 
	C161.164490,318.556854 161.178513,449.524109 161.095490,580.491272 
	C161.093170,584.148865 162.002701,585.434326 165.839340,585.358032 
	C177.665024,585.122742 189.498383,585.272705 201.328751,585.272766 
	C320.298981,585.273254 439.269196,585.274719 558.239441,585.263977 
	C559.907349,585.263855 561.575195,585.111206 563.243042,585.029724 
	C563.371521,584.590942 563.500000,584.152222 563.628479,583.713440 
	C535.142944,555.103821 506.657410,526.494202 477.080505,496.788513 
	C512.802979,461.009216 548.572388,425.182861 584.275085,389.423340 
	C518.279846,388.779144 451.849976,388.130737 384.441742,387.472412 
z"/>
<path fill="#FEFEFE" opacity="1.000000" stroke="none" 
	d="
M384.930908,387.477356 
	C451.849976,388.130737 518.279846,388.779144 584.275085,389.423340 
	C548.572388,425.182861 512.802979,461.009216 477.080505,496.788513 
	C506.657410,526.494202 535.142944,555.103821 563.628479,583.713440 
	C563.500000,584.152222 563.371521,584.590942 563.243042,585.029724 
	C561.575195,585.111206 559.907349,585.263855 558.239441,585.263977 
	C439.269196,585.274719 320.298981,585.273254 201.328751,585.272766 
	C189.498383,585.272705 177.665024,585.122742 165.839340,585.358032 
	C162.002701,585.434326 161.093170,584.148865 161.095490,580.491272 
	C161.178513,449.524109 161.164490,318.556854 161.172501,187.589630 
	C161.172562,186.487350 161.288300,185.385071 161.360687,184.092560 
	C190.295670,213.170029 218.955063,241.970551 248.477249,271.638092 
	C285.482819,234.225143 321.245483,198.068741 357.008179,161.912354 
	C357.486816,162.169022 357.965485,162.425690 358.444122,162.682358 
	C358.444122,164.456528 358.427032,166.230896 358.446564,168.004868 
	C359.213409,237.647964 359.986603,307.290985 360.748688,376.934143 
	C360.825470,383.953033 364.309296,387.390442 371.446899,387.410156 
	C375.778534,387.422119 380.110138,387.451080 384.930908,387.477356 
M355.053467,531.604431 
	C358.173615,525.858887 361.293732,520.113342 364.755493,513.738647 
	C343.899109,513.738647 323.943939,513.724854 303.988983,513.786804 
	C303.147217,513.789429 301.892181,514.264160 301.529785,514.911194 
	C296.616486,523.682617 291.827179,532.523499 286.787323,541.749817 
	C304.550110,541.749817 321.553650,541.227478 338.501282,541.973572 
	C346.783112,542.338257 352.147736,540.267273 355.053467,531.604431 
M233.024673,409.500000 
	C233.024673,400.876068 233.024673,392.252106 233.024673,382.845703 
	C223.920486,387.874908 215.313461,392.488617 206.906967,397.442596 
	C205.792679,398.099243 205.216354,400.484406 205.206207,402.074280 
	C205.090225,420.233246 205.124603,438.393188 205.150467,456.552856 
	C205.152176,457.757782 205.410660,458.962311 205.593399,460.545563 
	C213.982162,455.929779 221.771332,451.464111 229.745209,447.357025 
	C232.422424,445.978058 233.120239,444.292053 233.081711,441.487335 
	C232.939804,431.159882 233.024948,420.829376 233.024673,409.500000 
z"/>
<path fill="#060606" opacity="1.000000" stroke="none" 
	d="
M354.877686,531.929688 
	C352.147736,540.267273 346.783112,542.338257 338.501282,541.973572 
	C321.553650,541.227478 304.550110,541.749817 286.787323,541.749817 
	C291.827179,532.523499 296.616486,523.682617 301.529785,514.911194 
	C301.892181,514.264160 303.147217,513.789429 303.988983,513.786804 
	C323.943939,513.724854 343.899109,513.738647 364.755493,513.738647 
	C361.293732,520.113342 358.173615,525.858887 354.877686,531.929688 
z"/>
<path fill="#070707" opacity="1.000000" stroke="none" 
	d="
M233.024673,410.000000 
	C233.024948,420.829376 232.939804,431.159882 233.081711,441.487335 
	C233.120239,444.292053 232.422424,445.978058 229.745209,447.357025 
	C221.771332,451.464111 213.982162,455.929779 205.593399,460.545563 
	C205.410660,458.962311 205.152176,457.757782 205.150467,456.552856 
	C205.124603,438.393188 205.090225,420.233246 205.206207,402.074280 
	C205.216354,400.484406 205.792679,398.099243 206.906967,397.442596 
	C215.313461,392.488617 223.920486,387.874908 233.024673,382.845703 
	C233.024673,392.252106 233.024673,400.876068 233.024673,410.000000 
z"/>
</svg>